              <svg
                xmlns="http://www.w3.org/2000/svg"
                xml:space="preserve"
                width="150"
                height="40"
                viewBox="0 0 1133.853 340.157"
                class="app-link-svg"
                aria-hidden="true"
              >
                <defs>
                  <clipPath id="399f4d-a" clipPathUnits="userSpaceOnUse">
                    <path d="M0 255.118h850.39V0H0Z"></path>
                  </clipPath>
                </defs>
                <g
                  clip-path="url(#399f4d-a)"
                  transform="matrix(1.33333 0 0 -1.33333 0 340.157)"
                >
                  <path
                    fill="#c0c1c1"
                    d="M790.398 255.118H60.027c-2.31 0-4.59 0-6.892-.013-1.927-.012-3.84-.049-5.785-.079-4.19-.105-8.433-.363-12.617-1.113-4.214-.738-8.131-1.999-11.967-3.947a40.5 40.5 0 0 1-10.191-7.42 39.4 39.4 0 0 1-7.418-10.207c-1.958-3.83-3.2-7.766-3.935-11.983-.76-4.169-1.02-8.386-1.128-12.604-.058-1.93-.065-3.867-.095-5.798V53.145c.03-1.955.037-3.848.095-5.804.108-4.217.369-8.435 1.128-12.604.735-4.217 1.977-8.17 3.935-11.989 1.909-3.75 4.406-7.206 7.418-10.163a39.5 39.5 0 0 1 10.19-7.42c3.837-1.968 7.754-3.21 11.968-3.972C38.917.443 43.16.196 47.35.08c1.945-.043 3.858-.067 5.785-.067C55.438 0 57.718 0 60.027 0h730.37c2.263 0 4.562 0 6.824.013 1.92 0 3.886.024 5.805.067 4.217.116 8.447.362 12.591 1.113 4.217.762 8.14 2.004 12.013 3.971a39.5 39.5 0 0 1 10.182 7.421c3 2.957 5.496 6.413 7.44 10.163 1.93 3.818 3.185 7.772 3.898 11.99.775 4.168 1.02 8.386 1.169 12.603.024 1.956.024 3.85.024 5.804.049 2.287.049 4.562.049 6.886v135.05c0 2.305 0 4.592-.05 6.873 0 1.931 0 3.867-.024 5.798-.149 4.218-.394 8.435-1.169 12.604-.713 4.217-1.967 8.152-3.898 11.983-1.943 3.768-4.439 7.224-7.439 10.206a40.6 40.6 0 0 1-10.182 7.421c-3.873 1.948-7.796 3.21-12.013 3.947-4.144.75-8.374 1.008-12.59 1.113-1.92.03-3.887.067-5.806.08-2.261.012-4.56.012-6.823.012"
                  ></path>
                  <path
                    d="M53.165 5.509c-1.918 0-3.79.024-5.693.067-3.52.099-7.695.295-11.768 1.027-3.843.695-7.258 1.827-10.431 3.45a34 34 0 0 0-8.795 6.4 33.5 33.5 0 0 0-6.424 8.792c-1.633 3.178-2.749 6.59-3.419 10.433-.768 4.236-.965 8.534-1.048 11.805-.04 1.328-.092 5.749-.092 5.749v148.722s.055 4.353.092 5.632c.083 3.298.28 7.593 1.042 11.786.673 3.865 1.789 7.274 3.422 10.465a33.9 33.9 0 0 0 6.391 8.8 35 35 0 0 0 8.828 6.438c3.234 1.642 6.644 2.764 10.41 3.425 4.239.759 8.536.949 11.807 1.032l5.681.077h744.023l5.748-.08c3.229-.08 7.526-.27 11.701-1.023 3.793-.664 7.224-1.792 10.519-3.45a34.7 34.7 0 0 0 8.762-6.394c2.576-2.557 4.733-5.527 6.443-8.841 1.623-3.218 2.73-6.627 3.369-10.381.732-3.972.959-8.051 1.094-11.882.019-1.782.019-3.698.019-5.604.049-2.361.049-4.608.049-6.874V60.03c0-2.286 0-4.517-.049-6.767 0-2.048 0-3.923-.025-5.854-.129-3.708-.356-7.784-1.076-11.67-.651-3.86-1.758-7.272-3.399-10.513-1.698-3.271-3.856-6.228-6.395-8.724a34 34 0 0 0-8.809-6.437c-3.266-1.66-6.598-2.76-10.502-3.462-4.034-.732-8.208-.928-11.768-1.027a246 246 0 0 0-5.65-.067l-6.825-.013z"
                  ></path>
                  <path
                    fill="#fff"
                    d="M289.6 92.718h22.031l-7.889 21.117q-1.624 4.375-3.205 9.665a289 289 0 0 0-3.102-9.565zm25.794-10.023h-29.51l-7.224-19.743h-12.975l28.9 73.728h12.263l29.56-73.728h-13.635Zm59.916-6.335q3.842 5.163 3.842 15.085 0 9.21-3.18 13.358c-2.122 2.764-4.943 4.145-8.471 4.145q-3.666.001-6.768-1.728c-2.067-1.154-4.038-2.698-5.901-4.632v-29.41q1.88-.915 4.374-1.45a23.6 23.6 0 0 1 4.938-.532q7.326 0 11.167 5.163m-33.047 28.062q-.002 6.105-.406 13.433h11.803q.658-3.41.916-6.972 7.326 7.99 16.79 7.99c3.662 0 7.057-.926 10.175-2.774q4.684-2.772 7.56-8.75 2.874-5.982 2.875-15.189-.001-9.618-3.286-16.436-3.28-6.816-9.182-10.328t-13.636-3.513q-5.599.002-11.041 1.884V41.073l-12.568-1.069zm90.803-28.061q3.842 5.163 3.842 15.085 0 9.21-3.18 13.358c-2.123 2.764-4.944 4.145-8.472 4.145q-3.666.001-6.768-1.728c-2.067-1.154-4.038-2.698-5.9-4.632v-29.41c1.25-.61 2.711-1.093 4.373-1.45a23.6 23.6 0 0 1 4.938-.532q7.326 0 11.167 5.163m-33.047 28.062c0 4.071-.138 8.546-.406 13.433h11.802q.66-3.41.917-6.972 7.325 7.99 16.792 7.99 5.494-.001 10.173-2.774 4.684-2.772 7.56-8.75 2.874-5.982 2.874-15.189 0-9.618-3.285-16.436-3.279-6.816-9.183-10.328-5.9-3.511-13.635-3.513-5.599.002-11.04 1.884V41.073l-12.569-1.069zm73.422-37.982q-8.142 4.501-12.519 12.896-4.374 8.398-4.373 19.845 0 12.416 5.036 21.092 5.039 8.673 13.714 13.024 8.67 4.35 19.461 4.35 6.36.001 12.134-1.4 5.775-1.397 10.765-3.84l-3.206-9.667q-10.029 4.781-19.13 4.782-7.685 0-13.46-3.281t-8.983-9.643c-2.134-4.24-3.206-9.36-3.206-15.366q.001-7.886 2.47-13.992 2.468-6.107 7.784-9.668 5.319-3.562 13.406-3.562 3.667 0 7.328.612 3.666.61 6.868 1.78V89.31H490.49v9.769h29.255V68.04a65.5 65.5 0 0 0-13.255-4.53q-6.942-1.575-13.816-1.574c-7.395 0-13.802 1.5-19.23 4.503m84.055 6.691q3.92 1.879 6.412 4.68v10.176q-5.14.559-8.395.56-7.785 0-10.761-2.519t-2.976-6.792q0-4.072 2.16-6.03 2.166-1.96 5.876-1.96 3.767 0 7.684 1.884m7.529-10.177q-.659 3.205-.862 7.277-2.9-3.464-7.559-5.876-4.651-2.417-10.504-2.417-4.734.001-8.626 1.855-3.891 1.858-6.182 5.598-2.29 3.74-2.289 9.133 0 7.987 5.751 12.746 5.748 4.759 19.18 4.758c3.362 0 6.684-.238 9.974-.713v1.07q0 7.275-3.105 10.251-3.102 2.976-8.903 2.977-4.017 0-8.6-1.17c-3.051-.782-5.734-1.713-8.04-2.799l-1.984 9.16q3.359 1.525 8.856 2.798 5.493 1.27 11.601 1.271 7.121 0 12.109-2.163 4.985-2.163 7.784-7.427c1.867-3.51 2.801-8.237 2.801-14.172V73.281q-.001-3.409.405-10.329zm22.396 13.18v64.874l12.514 1.017V78.368q0-3.508 1.197-4.959 1.193-1.45 3.792-1.45c.778 0 1.884.187 3.307.559l1.477-9.007q-1.785-.712-4.353-1.145a29.4 29.4 0 0 0-4.86-.43q-13.075 0-13.074 14.196m31.293 0v64.874l12.515 1.017V78.368q-.001-3.508 1.196-4.959 1.194-1.45 3.792-1.45c.778 0 1.884.187 3.307.559l1.477-9.007q-1.784-.712-4.352-1.145a29.5 29.5 0 0 0-4.86-.43q-13.076 0-13.075 14.196m62.127 20.656c-.234 4.376-1.34 7.66-3.307 9.846q-2.95 3.282-7.884 3.281-4.784.002-7.965-3.307-3.179-3.307-4.148-9.82Zm12.263-7.987h-35.923q.867-17.25 16.435-17.25 3.867 0 7.915.941a47 47 0 0 1 7.759 2.52l2.746-8.6q-9.208-4.477-20.71-4.477-8.749 0-14.756 3.306-6 3.308-9.032 9.516-3.025 6.205-3.025 14.96-.002 9.106 3.205 15.67 3.207 6.566 8.932 10.023c3.812 2.31 8.215 3.461 13.2 3.461q7.786 0 13.004-3.639 5.209-3.638 7.734-9.693 2.517-6.054 2.516-13.38zm10.127 15.264c0 3.02-.138 7.614-.406 13.79h11.753c.205-1.527.397-3.351.586-5.47.183-2.122.313-3.842.38-5.165q2.187 3.613 4.298 6.079a17.6 17.6 0 0 0 4.94 4.02q2.821 1.554 6.431 1.553 2.9 0 4.99-.611l-1.578-10.888q-1.832.56-4.073.559-4.425-.001-7.734-2.264-3.308-2.266-7.068-7.455v-35.26h-12.519zm40.51-63.578c-1.834.322-3.34.687-4.529 1.095l2.29 9.157c.844-.236 1.917-.464 3.206-.687a22 22 0 0 1 3.662-.33q8.342 0 12.517 10.738l.813 2.034-20.249 55.36h13.481l10.178-30.937q2.493-7.939 3.206-12.16a157 157 0 0 0 3.357 11.907l10.33 31.19h12.668L774.476 62.24q-2.848-7.888-6.157-12.72-3.308-4.835-7.809-7.175-4.506-2.34-10.866-2.34c-2.104 0-4.067.16-5.9.482"
                  ></path>
                  <path
                    fill="#c8102e"
                    fill-rule="evenodd"
                    d="M172.35 208.706h-70.972c-33.433 0-45.662-12.229-45.662-45.66V92.071c0-33.43 12.229-45.66 45.66-45.66h70.952c33.433 0 45.684 12.23 45.684 45.66v70.973c0 33.432-12.23 45.661-45.662 45.661"
                  ></path>
                  <path
                    fill="#fff"
                    d="M126.521 114.582h6.509l-3.265 7.593Zm-1.602-3.825-1.931-4.418h-4.395l9.347 21.206h3.799l9.31-21.206h-4.514l-1.905 4.418Zm70.732-4.404h4.248v21.191h-4.248Zm-16.909 9.105h7.83v3.863h-7.83v4.343h11.367v3.868h-15.614V106.34h16.024v3.865h-11.777Zm-16.88-2.504-4.817 14.592h-3.514l-4.817-14.592-4.688 14.582h-4.582l7.396-21.209h3.564l4.825 13.931 4.823-13.93h3.595l7.377 21.208h-4.463Zm-49.756 2.445c0-3.449-1.712-5.293-4.823-5.293-3.127 0-4.85 1.896-4.85 5.441v11.986h-4.306V115.4c0-5.967 3.317-9.39 9.098-9.39 5.838 0 9.185 3.487 9.185 9.567v11.97h-4.304zm-24.251 12.146h4.304v-21.219h-4.304v8.617h-9.721v-8.617h-4.306v21.22h4.306v-8.56h9.721zm49.008 27.016c-14.896 0-27.015 12.12-27.015 27.015h3.817c0-12.79 10.407-23.198 23.198-23.198s23.198 10.407 23.198 23.198h3.817c0-14.896-12.119-27.015-27.015-27.015m152.031 14.582q2.637 1.77 3.942 4.872t1.306 7.093q0 3.919-1.155 6.981-1.155 3.064-3.69 4.885t-6.53 1.82q-3.816 0-6.478-1.845t-3.993-4.948q-1.33-3.1-1.331-6.842 0-3.942 1.256-7.057 1.255-3.114 3.842-4.92 2.586-1.81 6.403-1.81 3.791 0 6.429 1.771m-16.272-4.458q-3.993 2.286-6.103 6.416t-2.11 9.605q0 5.751 2.248 10.058 2.247 4.307 6.478 6.654 4.233 2.35 9.982 2.35 5.501 0 9.468-2.274 3.968-2.273 6.052-6.39 2.085-4.12 2.085-9.544 0-5.85-2.273-10.17t-6.48-6.654q-4.207-2.336-9.88-2.336-5.475 0-9.467 2.285m40.831 29.331h-11.275l.552 5.248h28.3l-.577-5.248h-10.722v-31.113h-6.278Zm51.378-31.113h-7.082l-10.823 16.021h-4.294v-16.021h-6.278v36.361h6.278v-15.016h3.29l7.534 10.898q1.656 2.436 3.327 3.528 1.67 1.093 4.206 1.093 2.11 0 3.767-.703l-1.306-4.897q-1.03.426-1.959.426-1.105 0-1.896-.552t-1.645-1.783l-6.654-9.542zm20.541 20.127q2.009 1.82 2.009 5.135 0 3.365-2.047 4.846-2.046 1.482-6.014 1.482h-3.415v-12.907q2.36-.377 3.616-.377 3.842 0 5.851 1.82m-15.745 16.235h9.794q6.905 0 10.572-2.812t3.666-8.136q0-3.616-1.645-6.316-1.644-2.7-4.582-4.143-2.938-1.444-6.756-1.444-2.084 0-4.771.502v-14.012h-6.278zm52.383-30.121q2.637 1.77 3.942 4.872 1.307 3.101 1.307 7.093 0 3.919-1.156 6.981-1.155 3.064-3.69 4.885-2.538 1.82-6.53 1.82-3.818 0-6.479-1.845t-3.993-4.948q-1.33-3.1-1.33-6.842 0-3.942 1.255-7.057 1.255-3.114 3.842-4.92 2.587-1.81 6.403-1.81 3.792 0 6.43 1.771m-16.273-4.458q-3.993 2.286-6.103 6.416t-2.109 9.605q0 5.751 2.248 10.058 2.247 4.307 6.478 6.654 4.233 2.35 9.982 2.35 5.5 0 9.467-2.274t6.053-6.39q2.083-4.12 2.084-9.544 0-5.85-2.273-10.17t-6.479-6.654q-4.207-2.336-9.88-2.336-5.476 0-9.468 2.285m45.904 37.743q-1.983 1.054-3.025 2.712a9.06 9.06 0 0 0-1.32 3.566h4.52q.729-4.017 4.722-4.018t4.747 4.018h4.544a9.1 9.1 0 0 0-1.318-3.566q-1.042-1.657-3.04-2.712-1.996-1.055-4.933-1.055-2.913 0-4.897 1.055m14.163-39.525v19.988q0 3.767.276 8.64l-18.255-28.628h-6.982v36.361h5.826v-20.767q0-3.39-.226-7.408l17.98 28.175h7.207v-36.36zm22.424 31.113h-11.275l.553 5.248h28.3l-.577-5.248H494.51v-31.113h-6.279Zm22.902 5.248h21.42l-.602-5.173h-14.54v-10.019h13.71v-4.847h-13.71v-11.099h15.319l-.528-5.223h-21.07zm61.386-30.146q1.92 1.57 1.92 4.432 0 3.039-2.121 4.62-2.121 1.583-6.114 1.583h-4.22v-12.204h4.722q3.892 0 5.813 1.569m-10.534 15.28h3.917q1.958 0 3.453.779c1.495.779 1.762 1.218 2.298 2.097q.803 1.318.804 2.9 0 2.235-1.621 3.34t-4.683 1.105h-4.168zm14.527-3.528a8.73 8.73 0 0 0 3.064-3.14q1.117-1.944 1.117-4.556 0-3.039-1.52-5.362-1.519-2.323-4.444-3.616t-7.02-1.293h-11.851v36.36h11.349q5.775 0 8.665-2.233 2.886-2.235 2.887-6.128 0-3.24-1.845-5.411-1.846-2.172-4.834-3.051 2.485-.377 4.432-1.57"
                  ></path>
                </g>
              </svg>