            <svg xmlns="http://www.w3.org/2000/svg" viewBox="0 0 305.8 64">
              <path
                d="M291.3 35c-1.4 0-2.8-.2-4.1-.5l4-8.9 4 8.9c-1.3.3-2.6.5-3.9.5m14.1 6.8-9.3-20.4c-1.1-2.2-2.5-3.2-4.6-3.2h-.4c-2.2 0-3.6 1-4.7 3.2l-9.3 20.4c-.9 2-.3 3.8 1.6 4.5 1.6.7 3.4.1 4.2-1.5l.1-.2 2.1-4.4c2.1.7 4.2 1 6.4 1 2.1 0 4.2-.3 6.1-1l2 4.4c.6 1.6 2.4 2.4 4.1 1.8h.1l.2-.1c1.6-.7 2.4-2.6 1.7-4.2-.2-.1-.2-.2-.3-.3m-33.6-1.9H270V21.3c.1-1.8-1.4-3.3-3.2-3.4h-.3c-1.8-.1-3.3 1.3-3.4 3.1v19h-11.9V21.3c-.1-1.9-1.7-3.4-3.7-3.3-1.8.1-3.2 1.5-3.3 3.3v22c-.1 1.8 1.2 3.3 3 3.4h21v3c-.1 1.8 1.2 3.3 3 3.4h.3c1.7.1 3.3-1.2 3.4-2.9v-6.7c.2-1.7-1.1-3.2-2.7-3.4h-.6m-34.4-.2h-1.8V21.3c.1-1.8-1.4-3.3-3.2-3.4h-.2c-1.8 0-3.2 1.4-3.3 3.2V40h-11.9V21.3c-.1-1.9-1.7-3.4-3.7-3.3-1.8.1-3.2 1.5-3.3 3.3v22c-.1 1.8 1.2 3.3 3 3.4h21v3c-.1 1.8 1.2 3.3 3 3.4h.3c1.7.2 3.3-1.1 3.5-2.8v-6.9c.2-1.7-1.1-3.2-2.7-3.4h-.6M199 18.2h-.3c-2 0-3.4 1-4.8 3l-11.2 15.9V21.5c0-1.8-1.5-3.3-3.3-3.3s-3.3 1.5-3.3 3.3v21.2c-.1 2 1.3 3.7 3.3 3.8h.9c2.1 0 3.6-1.1 4.9-3l11.2-15.9v15.5c0 1.8 1.5 3.3 3.3 3.3s3.3-1.5 3.3-3.3V22c.2-2-1.3-3.7-3.3-3.8zm-33.4 0h-19.2c-1.7-.1-3.3 1.2-3.4 2.9v22.4c-.1 1.8 1.4 3.3 3.2 3.4h.3c1.8.1 3.3-1.3 3.4-3.1v-19h12.3v18.7c-.1 1.8 1.3 3.3 3.1 3.4h.4c1.8.1 3.4-1.3 3.5-3.1V21.5c0-1.8-1.4-3.3-3.1-3.3zm-49.7 22.2c-4.5 0-7.7-3.4-7.7-8 0-4.3 3.5-7.7 7.7-7.7s7.7 3.5 7.7 7.7c.1 4.6-3.1 8-7.7 8m0-22.4c-7.9-.2-14.4 6-14.6 13.9v.6c-.2 7.9 6.1 14.4 13.9 14.5h.6c7.9.1 14.5-6.2 14.6-14.1v-.4c.1-7.8-6.2-14.3-14-14.4zM88 40H76.7c.8-1.5 1.3-3.1 1.7-4.8.4-2.3.7-4.7.7-7l.1-3.3h8.7zm8.6 0h-1.8V21.5c.1-1.8-1.2-3.3-3-3.4H75.6c-1.9 0-3.1 1.2-3.1 3.4V26q.15 4.2-.6 8.4c-.3 2-1.1 3.9-2.2 5.6h-.8c-1.7-.1-3.2 1.1-3.3 2.8v6.9c-.1 1.8 1.2 3.3 3 3.4h.3c1.7.1 3.3-1.2 3.4-2.9v-3.4H93v3c-.1 1.8 1.2 3.3 3 3.4h.3c1.7.1 3.3-1.2 3.4-2.9v-6.7c.2-1.6-.9-3.2-2.6-3.4h-.7m-46.1.2c-4.5 0-7.7-3.4-7.7-8 0-4.3 3.5-7.7 7.7-7.7 4.3 0 7.7 3.5 7.7 7.7.1 4.6-2.9 8-7.7 8m0-22.4c-7.9-.2-14.4 6-14.6 13.9v.6c-.2 7.9 6 14.4 13.9 14.5h.7c7.9.1 14.5-6.2 14.6-14.1v-.4C65 24 58.7 18 50.3 18M22.2 40H11c.8-1.6 1.3-3.2 1.7-4.9.4-2.3.7-4.7.7-7l.1-3.3h8.7zm8.6 0H29V21.5c.1-1.8-1.2-3.3-3-3.4H10c-1.9 0-3.1 1.2-3.1 3.4V26q.15 4.2-.6 8.4c-.3 2-1.1 3.9-2.2 5.6h-.8C1.6 39.9.1 41.1 0 42.8v6.9c-.1 1.8 1.2 3.3 3 3.4h.3c1.7.1 3.3-1.2 3.4-2.9v-3.4h20.7v3c-.1 1.8 1.2 3.3 3 3.4h.3c1.7.1 3.3-1.2 3.4-2.9v-6.7c.2-1.7-1.1-3.2-2.7-3.4-.2-.3-.4-.3-.6-.2"
              ></path>
            </svg>