              <svg
                xmlns="http://www.w3.org/2000/svg"
                width="135"
                height="40"
                fill="none"
                class="app-link-svg"
                aria-hidden="true"
              >
                <path
                  fill="#000"
                  d="M130 0H5a5 5 0 0 0-5 5v30a5 5 0 0 0 5 5h125a5 5 0 0 0 5-5V5a5 5 0 0 0-5-5"
                ></path>
                <path
                  fill="#A6A6A6"
                  d="M130 .8a4.2 4.2 0 0 1 4.2 4.2v30a4.2 4.2 0 0 1-4.2 4.2H5A4.2 4.2 0 0 1 .8 35V5A4.2 4.2 0 0 1 5 .8zm0-.8H5a5 5 0 0 0-5 5v30a5 5 0 0 0 5 5h125a5 5 0 0 0 5-5V5a5 5 0 0 0-5-5"
                ></path>
                <path
                  fill="#fff"
                  d="M68.14 21.75A4.25 4.25 0 1 0 72.41 26a4.19 4.19 0 0 0-4.27-4.25m0 6.83a2.58 2.58 0 1 1 2.4-2.58 2.46 2.46 0 0 1-2.4 2.58m-9.31-6.83A4.25 4.25 0 1 0 63.09 26a4.19 4.19 0 0 0-4.27-4.25zm0 6.83A2.58 2.58 0 1 1 61.22 26a2.46 2.46 0 0 1-2.4 2.58zm-11.09-5.52v1.8h4.32a3.77 3.77 0 0 1-1 2.27 4.42 4.42 0 0 1-3.33 1.32 4.8 4.8 0 1 1 0-9.6A4.6 4.6 0 0 1 51 20.14l1.27-1.27A6.3 6.3 0 0 0 47.74 17a6.609 6.609 0 1 0 0 13.21 6 6 0 0 0 4.61-1.85 6 6 0 0 0 1.56-4.22 6 6 0 0 0-.1-1.13zm45.31 1.4a4 4 0 0 0-3.64-2.71 4 4 0 0 0-4 4.25 4.16 4.16 0 0 0 4.22 4.25 4.23 4.23 0 0 0 3.54-1.88l-1.45-1a2.43 2.43 0 0 1-2.09 1.18 2.16 2.16 0 0 1-2.06-1.29l5.69-2.35zm-5.8 1.42a2.33 2.33 0 0 1 2.22-2.48 1.65 1.65 0 0 1 1.58.9zM82.63 30h1.87V17.5h-1.87zm-3.06-7.3h-.07a3 3 0 0 0-2.24-1 4.26 4.26 0 0 0 0 8.51 2.9 2.9 0 0 0 2.24-1h.06v.61c0 1.63-.87 2.5-2.27 2.5a2.35 2.35 0 0 1-2.14-1.51l-1.63.68A4.05 4.05 0 0 0 77.29 34c2.19 0 4-1.29 4-4.43V22h-1.72zm-2.14 5.88a2.59 2.59 0 0 1 0-5.16A2.4 2.4 0 0 1 79.7 26a2.38 2.38 0 0 1-2.28 2.58zm24.38-11.08h-4.47V30h1.87v-4.74h2.61a3.889 3.889 0 1 0 0-7.76zm0 6H99.2v-4.26h2.65a2.147 2.147 0 0 1 1.517 3.662 2.15 2.15 0 0 1-1.517.628zm11.53-1.8a3.5 3.5 0 0 0-3.33 1.91l1.66.69a1.77 1.77 0 0 1 1.7-.92 1.8 1.8 0 0 1 1.792.931c.114.21.184.441.208.679v.13a4.1 4.1 0 0 0-1.95-.48c-1.79 0-3.6 1-3.6 2.81a2.9 2.9 0 0 0 .969 2.03 2.9 2.9 0 0 0 2.131.72 2.63 2.63 0 0 0 2.4-1.2h.06v1h1.8v-4.81c0-2.19-1.66-3.46-3.79-3.46zm-.23 6.85c-.61 0-1.46-.31-1.46-1.06 0-1 1.06-1.33 2-1.33a3.3 3.3 0 0 1 1.7.42 2.264 2.264 0 0 1-2.19 2zM123.74 22l-2.14 5.42h-.06L119.32 22h-2l3.33 7.58-1.9 4.21h1.95L125.82 22zm-16.81 8h1.87V17.5h-1.87z"
                ></path>
                <path
                  fill="url(#65b93d-a)"
                  d="M10.44 7.54a2 2 0 0 0-.46 1.4v22.12a2 2 0 0 0 .46 1.4l.07.07L22.9 20.15v-.29L10.51 7.47z"
                ></path>
                <path
                  fill="url(#65b93d-b)"
                  d="m27 24.28-4.1-4.13v-.29l4.1-4.14.09.05L32 18.56c1.4.79 1.4 2.09 0 2.89l-4.89 2.78z"
                ></path>
                <path
                  fill="url(#65b93d-c)"
                  d="M27.12 24.22 22.9 20 10.44 32.46a1.63 1.63 0 0 0 2.08.06l14.61-8.3"
                ></path>
                <path
                  fill="url(#65b93d-d)"
                  d="m27.12 15.78-14.61-8.3a1.63 1.63 0 0 0-2.08.06L22.9 20z"
                ></path>
                <path
                  fill="#000"
                  d="m27 24.13-14.49 8.25a1.67 1.67 0 0 1-2 0l-.07.07.07.07a1.66 1.66 0 0 0 2 0l14.61-8.3z"
                  opacity="0.2"
                ></path>
                <path
                  fill="#000"
                  d="M10.44 32.32a2 2 0 0 1-.46-1.4v.15a2 2 0 0 0 .46 1.4l.07-.07zM32 21.3l-5 2.83.09.09L32 21.44A1.75 1.75 0 0 0 33 20a1.86 1.86 0 0 1-1 1.3"
                  opacity="0.12"
                ></path>
                <path
                  fill="#fff"
                  d="M12.51 7.62 32 18.7a1.86 1.86 0 0 1 1 1.3 1.75 1.75 0 0 0-1-1.44L12.51 7.48c-1.4-.79-2.54-.13-2.54 1.47v.15c.03-1.61 1.15-2.27 2.54-1.48"
                  opacity="0.25"
                ></path>
                <path
                  fill="#fff"
                  stroke="#fff"
                  stroke-miterlimit="10"
                  stroke-width="0.2"
                  d="M42.11 14.27h-.74v-2H42a2.86 2.86 0 0 0 .76-2.3V7h4v5.26h.67v2h-.74V13h-4.58zM43.5 10a4 4 0 0 1-.57 2.3h3V7.74H43.5zm9.91 2.22a3.12 3.12 0 0 1-4.4 0 3.24 3.24 0 0 1 0-4.45 3.1 3.1 0 0 1 4.4 0 3.23 3.23 0 0 1 0 4.45zm-3.83-.5a2.31 2.31 0 0 0 3.26 0 2.56 2.56 0 0 0 0-3.44 2.31 2.31 0 0 0-3.26 0 2.56 2.56 0 0 0 0 3.44zm8.6 1.41A3.06 3.06 0 0 1 55.06 10a3.06 3.06 0 0 1 3.12-3.13 2.77 2.77 0 0 1 2.2 1l-.54.52a2 2 0 0 0-1.67-.76 2.27 2.27 0 0 0-1.66.66 2.57 2.57 0 0 0 0 3.47 2.27 2.27 0 0 0 1.66.66 2.37 2.37 0 0 0 1.83-.89l.54.54a2.9 2.9 0 0 1-1 .78 3.15 3.15 0 0 1-1.36.28zm5.5-.13h-.77V7.74h-1.68V7h4.12v.74h-1.67zm6.97-6-2.27 5.06A1.51 1.51 0 0 1 67 13.13a1.5 1.5 0 0 1-.6-.13l.2-.71c.122.07.26.109.4.11a.7.7 0 0 0 .42-.1.94.94 0 0 0 .27-.38l.22-.48-2-4.43h.91l1.48 3.44L69.74 7zm.87 6V7h4.34v6h-.77V7.74h-2.8V13zm5.71 0V7H78v2.57h3V7h.77v6H81v-2.71h-3V13zm10.83-.78a3.12 3.12 0 0 1-4.4 0 3.24 3.24 0 0 1 0-4.45 3.1 3.1 0 0 1 4.4 0 3.23 3.23 0 0 1 0 4.45zm-3.83-.5a2.31 2.31 0 0 0 3.26 0 2.56 2.56 0 0 0 0-3.44 2.31 2.31 0 0 0-3.26 0 2.56 2.56 0 0 0 0 3.44zM92.09 13V7h2.17a1.76 1.76 0 0 1 1.22.46A1.51 1.51 0 0 1 96 8.63a1.3 1.3 0 0 1-.22.75 1.4 1.4 0 0 1-.59.49c.29.096.544.277.73.52.192.245.295.549.29.86a1.57 1.57 0 0 1-.54 1.22 1.85 1.85 0 0 1-1.28.49zm.77-3.43h1.4a.9.9 0 0 0 .7-.29A.89.89 0 0 0 95 8a.86.86 0 0 0-.67-.29H92.9zm0 2.69h1.55a.92.92 0 0 0 .72-.31 1 1 0 0 0 .28-.68 1 1 0 0 0-1-1h-1.52z"
                ></path>
                <defs>
                  <linearGradient
                    id="65b93d-a"
                    x1="21.8"
                    x2="5.02"
                    y1="8.71"
                    y2="25.49"
                    gradientUnits="userSpaceOnUse"
                  >
                    <stop stop-color="#00A0FF"></stop>
                    я
                    <stop offset="1" stop-color="#00E3FF"></stop>
                  </linearGradient>
                  <linearGradient
                    id="65b93d-b"
                    x1="33.83"
                    x2="9.64"
                    y1="20"
                    y2="20"
                    gradientUnits="userSpaceOnUse"
                  >
                    <stop stop-color="#FFE000"></stop>
                    <stop offset="0.41" stop-color="#FFBD00"></stop>
                    <stop offset="0.78" stop-color="orange"></stop>
                    <stop offset="1" stop-color="#FF9C00"></stop>
                  </linearGradient>
                  <linearGradient
                    id="65b93d-c"
                    x1="24.83"
                    x2="2.07"
                    y1="22.3"
                    y2="45.05"
                    gradientUnits="userSpaceOnUse"
                  >
                    <stop stop-color="#FF3A44"></stop>
                    <stop offset="1" stop-color="#C31162"></stop>
                  </linearGradient>
                  <linearGradient
                    id="65b93d-d"
                    x1="7.3"
                    x2="17.46"
                    y1="0.18"
                    y2="10.34"
                    gradientUnits="userSpaceOnUse"
                  >
                    <stop stop-color="#32A071"></stop>
                    <stop offset="0.07" stop-color="#2DA771"></stop>
                    <stop offset="0.48" stop-color="#15CF74"></stop>
                    <stop offset="0.8" stop-color="#06E775"></stop>
                    <stop offset="1" stop-color="#00F076"></stop>
                  </linearGradient>
                </defs>
              </svg>