<svg xmlns="http://www.w3.org/2000/svg" width="48" height="50" viewBox="0 0 48 50" class="secret-buyer__img"><g fill="#fff" fill-rule="evenodd"><path d="M23.076 25.96c9.915 0 21.368-2.21 22.394-4.198s-12.764-4.64-12.764-4.64c-3.305 1.492-9.687 1.492-9.687 1.492s-6.382 0-9.687-1.492c0 0-13.733 2.707-12.707 4.695 1.082 1.934 12.25 4.143 22.45 4.143M31.625 13.367S29.688 2.652 28.263.553c-1.424-2.099-3.59 2.486-5.812 2.486S19.716.11 17.721 0c-2.05-.11-4.045 13.366-4.045 13.366s10.485 2.32 17.95 0M13.163 27.065s-.912 4.087 4.559 4.197c0 0 2.108 0 3.19-1.822.343-.553.855-.884 1.54-.884h.227c.627 0 1.197.331 1.539.884 1.082 1.822 3.19 1.822 3.19 1.822 5.471-.11 4.56-4.197 4.56-4.197-2.508.828-6.44.773-7.807.718h-2.679c.057-.056-5.242.22-8.319-.718"></path><path d="m11.51 26.567-4.216-.607L0 32.036h.684c3.248 0 11.852 2.65 11.852 2.65l-4.558 3.812c3.419.663 14.188 6.241 14.188 6.241l1.026-3.645c-8.604-6.131-11.681-14.527-11.681-14.527"></path><path d="m48 31.925-8.832-5.965-4.73.607c.285 1.492-.684 4.198-.684 4.198-13.619 9.998-11.396 18.89-11.396 18.89 5.413-10.384 17.323-11.82 17.323-11.82l-5.414-2.485C37.8 33.196 48 31.925 48 31.925"></path></g></svg>