            <svg
              xmlns="http://www.w3.org/2000/svg"
              viewBox="0 0 140 140"
              class="social-link-svg"
              aria-hidden="true"
            >
              <path
                d="M127.62 39c.84-2.8 0-4.86-4-4.86h-13.21a5.71 5.71 0 0 0-5.75 3.74s-6.72 16.38-16.24 27c-3.08 3.08-4.48 4.06-6.16 4.06-.84 0-2.1-1-2.1-3.78V39c0-3.36-.93-4.86-3.73-4.86H55.67a3.19 3.19 0 0 0-3.36 3c0 3.19 4.76 3.92 5.25 12.88v19.49c0 4.27-.77 5-2.45 5-4.48 0-15.38-16.45-21.84-35.28-1.27-3.66-2.54-5.14-5.91-5.14H14.14c-3.78 0-4.53 1.78-4.53 3.74 0 3.5 4.48 20.86 20.86 43.82 10.92 15.68 26.3 24.18 40.3 24.18 8.4 0 9.44-1.89 9.44-5.14V88.88c0-3.78.8-4.53 3.46-4.53 2 0 5.32 1 13.16 8.54 9 9 10.44 13 15.48 13h13.21c3.78 0 5.66-1.89 4.57-5.61s-5.47-9.1-11.15-15.48c-3.08-3.64-7.7-7.56-9.1-9.52-2-2.52-1.4-3.64 0-5.88 0-.03 16.1-22.71 17.78-30.4"
              ></path>
            </svg>